<?xml version="1.0" standalone="no"?>
<!DOCTYPE svg PUBLIC "-//W3C//DTD SVG 20010904//EN"
 "http://www.w3.org/TR/2001/REC-SVG-20010904/DTD/svg10.dtd">
<svg version="1.0" xmlns="http://www.w3.org/2000/svg"
 width="1920.000000pt" height="1920.000000pt" viewBox="0 0 1920.000000 1920.000000"
 preserveAspectRatio="xMidYMid meet">
<metadata>
Created by potrace 1.14, written by Peter Selinger 2001-2017
</metadata>
<g transform="translate(0.000000,1920.000000) scale(0.100000,-0.100000)"
fill="#000000" stroke="none">
<path d="M9467 15294 c-1 -1 -65 -5 -142 -8 -77 -3 -160 -8 -185 -11 -25 -2
-76 -7 -115 -10 -38 -4 -83 -8 -100 -11 -31 -4 -77 -10 -155 -20 -25 -3 -65
-10 -90 -15 -25 -5 -58 -11 -75 -13 -16 -2 -46 -6 -65 -10 -19 -4 -42 -8 -50
-10 -8 -2 -26 -6 -40 -9 -14 -4 -36 -9 -50 -11 -14 -2 -53 -11 -88 -19 -34 -9
-65 -16 -67 -16 -3 -1 -10 -3 -17 -5 -7 -2 -40 -11 -73 -19 -33 -8 -87 -23
-120 -32 -33 -9 -67 -18 -75 -20 -8 -2 -15 -4 -15 -4 0 -1 -315 -110 -335
-116 -18 -5 -207 -81 -235 -95 -11 -5 -72 -32 -135 -61 -104 -46 -306 -148
-418 -210 -62 -35 -254 -150 -266 -160 -6 -5 -67 -46 -136 -91 -69 -45 -127
-84 -130 -88 -3 -3 -30 -24 -60 -45 -62 -45 -55 -39 -175 -135 -49 -39 -105
-85 -122 -101 -18 -16 -34 -29 -37 -29 -2 0 -17 -12 -33 -27 -16 -16 -53 -50
-83 -77 -88 -78 -284 -272 -362 -359 -40 -44 -84 -92 -98 -107 -14 -15 -41
-47 -60 -70 -19 -24 -40 -48 -45 -54 -53 -58 -275 -353 -275 -365 0 -5 -3 -11
-8 -13 -11 -5 -152 -216 -152 -228 0 -5 -4 -10 -9 -10 -5 0 -13 -10 -17 -22
-3 -13 -12 -30 -19 -38 -19 -22 -109 -179 -177 -310 -33 -63 -63 -119 -66
-125 -4 -5 -7 -12 -7 -15 0 -3 -22 -49 -48 -103 -26 -54 -47 -104 -47 -111 0
-8 -7 -19 -15 -26 -8 -7 -15 -20 -15 -30 0 -9 -3 -20 -7 -24 -4 -3 -12 -21
-19 -39 -6 -17 -35 -93 -64 -167 -28 -74 -54 -146 -56 -159 -3 -14 -8 -29 -12
-35 -4 -6 -7 -13 -8 -16 0 -3 -4 -12 -7 -20 -10 -23 -77 -255 -93 -320 -2 -8
-12 -49 -23 -90 -26 -97 -78 -351 -85 -413 -3 -27 -8 -52 -10 -55 -2 -4 -7
-36 -11 -72 -4 -36 -9 -72 -10 -81 -2 -9 -6 -40 -10 -70 -3 -30 -8 -70 -11
-90 -5 -36 -8 -80 -20 -269 -7 -112 -7 -503 0 -610 3 -41 7 -106 10 -145 2
-38 7 -101 11 -140 5 -38 9 -81 10 -95 2 -14 4 -25 5 -25 1 0 3 -16 4 -35 4
-43 16 -129 21 -150 3 -8 7 -33 10 -55 5 -35 47 -254 60 -310 6 -30 61 -242
78 -305 20 -73 66 -220 76 -245 5 -11 21 -56 36 -100 34 -97 113 -298 150
-380 45 -100 192 -396 231 -465 86 -153 76 -136 164 -273 41 -65 80 -126 85
-135 16 -26 49 -75 62 -92 38 -48 83 -111 83 -116 0 -3 13 -19 30 -37 16 -18
30 -38 30 -44 0 -7 4 -13 8 -13 5 0 24 -21 42 -47 19 -27 36 -50 40 -53 3 -3
39 -45 80 -95 94 -113 113 -135 175 -200 28 -29 73 -76 101 -106 71 -75 224
-221 318 -304 44 -39 88 -78 98 -87 10 -10 22 -18 27 -18 5 0 11 -3 13 -7 2
-7 24 -26 123 -106 6 -5 62 -47 125 -93 63 -47 123 -92 133 -100 9 -8 20 -14
24 -14 3 0 15 -7 25 -17 10 -9 27 -21 38 -27 10 -6 72 -45 137 -86 137 -88
120 -78 273 -164 69 -39 365 -186 465 -231 164 -74 624 -240 716 -259 13 -2
49 -12 79 -21 115 -33 262 -68 330 -80 19 -3 42 -8 50 -10 18 -5 64 -14 105
-21 116 -19 288 -44 330 -49 28 -3 70 -8 95 -10 344 -39 840 -36 1195 5 164
19 188 22 205 25 9 2 41 6 70 10 29 4 62 9 74 11 12 3 55 11 98 19 42 7 96 19
119 25 24 7 55 13 69 14 14 1 31 5 38 9 6 5 12 6 12 2 0 -3 8 -1 18 4 9 5 33
12 52 15 19 3 67 15 105 26 39 11 80 23 91 25 12 3 73 22 135 42 63 20 119 38
124 39 6 1 46 16 90 32 44 17 96 36 115 43 19 7 54 21 77 31 24 10 45 18 47
18 2 0 25 10 52 22 27 12 51 23 54 23 32 9 432 207 505 250 33 20 72 41 88 48
15 6 27 15 27 19 0 4 4 8 10 8 20 0 425 267 454 299 11 12 23 21 29 21 13 0
204 152 367 292 188 163 425 402 591 598 35 41 66 77 69 80 7 5 107 136 184
239 77 103 236 339 236 351 0 5 4 10 9 10 5 0 13 10 17 23 3 12 12 29 19 37
20 22 109 179 177 310 33 63 64 120 68 125 5 6 8 12 7 15 0 3 21 49 46 103 26
54 47 104 47 111 0 8 7 19 15 26 8 7 15 19 15 26 0 8 4 22 9 32 21 37 92 225
141 372 29 85 55 162 58 170 3 8 6 20 8 25 1 6 10 37 19 70 9 33 24 87 32 120
14 55 17 67 23 87 6 21 32 136 36 158 2 14 7 36 11 50 3 14 7 32 9 40 2 8 6
31 10 50 4 19 8 49 10 65 2 17 8 50 13 75 5 25 12 65 15 90 3 25 8 61 11 80 2
19 7 58 10 85 3 28 8 68 11 90 5 45 12 131 20 280 14 237 4 678 -20 867 -3 24
-8 70 -12 103 -3 33 -8 68 -10 79 -2 10 -6 44 -9 75 -4 31 -9 64 -11 74 -3 10
-7 30 -9 45 -2 15 -7 43 -11 62 -3 19 -7 42 -9 50 -1 8 -7 40 -13 70 -7 30
-14 64 -16 75 -4 17 -30 130 -41 175 -28 113 -37 147 -42 160 -3 8 -8 24 -10
35 -5 26 -131 401 -147 440 -30 69 -56 139 -56 151 0 8 -4 14 -10 14 -5 0 -10
9 -10 19 0 11 -4 22 -9 25 -5 3 -12 18 -15 32 -9 33 -168 358 -230 469 -24 44
-51 91 -58 105 -28 50 -133 225 -138 230 -3 3 -9 12 -15 21 -40 65 -111 167
-162 236 -18 24 -33 46 -33 49 0 3 -13 19 -30 37 -16 18 -30 38 -30 45 0 6 -4
12 -8 12 -5 0 -24 21 -42 48 -19 26 -36 49 -40 52 -3 3 -39 46 -80 95 -94 113
-113 135 -175 200 -27 29 -73 76 -101 106 -136 143 -349 338 -509 466 -33 26
-64 51 -70 56 -5 5 -62 47 -125 93 -63 47 -123 92 -133 100 -9 8 -21 14 -25
14 -5 0 -17 8 -28 18 -17 16 -223 150 -248 162 -6 3 -30 17 -53 33 -24 15 -45
27 -48 27 -3 0 -22 11 -43 23 -20 13 -80 46 -133 74 -53 28 -102 54 -110 59
-8 5 -19 9 -26 10 -7 1 -26 12 -43 24 -16 12 -30 19 -30 16 0 -2 -36 13 -80
35 -44 21 -83 39 -85 39 -2 0 -28 11 -57 24 -140 64 -582 223 -669 240 -13 2
-49 12 -79 21 -110 31 -257 67 -325 79 -16 3 -52 10 -80 16 -27 6 -63 13 -80
15 -16 3 -59 10 -94 17 -35 6 -71 12 -80 13 -9 0 -41 4 -71 8 -30 4 -71 9 -90
12 -19 2 -35 4 -35 5 0 1 -25 3 -55 5 -30 3 -82 7 -115 10 -148 12 -589 27
-598 19z"/>
</g>
</svg>
